<svg width="96" height="22" viewBox="0 0 96 22" fill="none" xmlns="http://www.w3.org/2000/svg">
<path d="M7.90958 5.59348C8.27401 5.84697 8.64948 6.21067 9.03048 6.69561V5.23529H10.825V15.7386C10.825 17.2044 10.6097 18.3617 10.179 19.2103C9.37282 20.7753 7.85436 21.5633 5.62361 21.5578C4.38123 21.5578 3.33764 21.2768 2.4873 20.7202C1.64248 20.1636 1.16762 19.293 1.06823 18.1082H3.04499C3.13886 18.6262 3.32659 19.0229 3.60268 19.304C4.03889 19.7338 4.7291 19.9542 5.66778 19.9487C7.15311 19.9487 8.1194 19.4252 8.5777 18.3727C8.84826 17.7555 8.97526 16.6534 8.95318 15.0663C8.56666 15.6559 8.09732 16.0913 7.55619 16.3778C7.00955 16.6644 6.29173 16.8077 5.3917 16.8077C4.1438 16.8077 3.05051 16.3613 2.11735 15.4741C1.17866 14.5869 0.714844 13.1155 0.714844 11.0711C0.714844 9.13683 1.18418 7.62691 2.12839 6.54131C3.0726 5.45571 4.21006 4.91016 5.54631 4.91016C6.44634 4.92118 7.23594 5.14711 7.90958 5.59348ZM8.14701 7.67099C7.55619 6.98216 6.81077 6.63499 5.89969 6.63499C4.53584 6.63499 3.6082 7.27423 3.10573 8.5527C2.84069 9.23602 2.70817 10.1287 2.70817 11.2364C2.70817 12.5369 2.97321 13.5288 3.49777 14.2066C4.02232 14.8844 4.73462 15.2261 5.62361 15.2261C7.01507 15.2261 7.99241 14.5979 8.55562 13.3415C8.87035 12.6306 9.03048 11.7985 9.03048 10.8506C9.03048 9.42338 8.73783 8.36534 8.14701 7.67099Z" fill="#5D5D5D"/>
<path d="M15.2677 11.5616C15.3174 12.4598 15.5217 13.1927 15.8806 13.7493C16.5653 14.8018 17.78 15.3253 19.5138 15.3253C20.2372 15.3364 20.955 15.2151 21.6397 14.9782C22.8765 14.5318 23.4895 13.7383 23.4895 12.5865C23.4895 11.7269 23.2299 11.1097 22.7054 10.7405C22.1753 10.3823 21.347 10.0682 20.2151 9.80366L18.1334 9.31872C16.7696 9.00461 15.8088 8.65193 15.2456 8.2717C14.2683 7.61042 13.7824 6.62401 13.7824 5.30696C13.7824 3.88522 14.2627 2.71696 15.2235 1.80219C16.1843 0.887421 17.5426 0.435547 19.304 0.435547C20.9219 0.435547 22.2968 0.837825 23.4287 1.63687C24.5607 2.43591 25.1239 3.7199 25.1294 5.4778H23.1085C23.0035 4.62915 22.7827 3.9789 22.4459 3.52702C21.8164 2.70043 20.7507 2.28713 19.2433 2.28713C18.0285 2.28713 17.1561 2.55164 16.6205 3.08617C16.0849 3.62071 15.8254 4.2379 15.8254 4.94326C15.8254 5.72026 16.1401 6.28786 16.7696 6.64605C17.1782 6.8775 18.1113 7.16406 19.5635 7.50572L21.717 8.0127C22.7551 8.25516 23.5612 8.59131 24.1244 9.01563C25.1018 9.75406 25.5877 10.8286 25.5877 12.2394C25.5877 13.9918 24.9637 15.2482 23.7158 16.0031C22.4679 16.7581 21.0213 17.1328 19.3703 17.1328C17.4432 17.1328 15.9413 16.6314 14.848 15.6229C13.7603 14.6255 13.2247 13.2699 13.2467 11.556L15.2677 11.5616Z" fill="#5D5D5D"/>
<path d="M35.3357 5.44511C36.1032 5.83085 36.683 6.32681 37.086 6.9385C37.4726 7.52263 37.7321 8.20044 37.8591 8.97744C37.975 9.50646 38.0358 10.3551 38.0358 11.5178H29.6152C29.6539 12.6916 29.9299 13.6339 30.4435 14.3448C30.957 15.0557 31.7576 15.4084 32.8343 15.4084C33.8448 15.4084 34.6455 15.0722 35.2473 14.3999C35.5841 14.0087 35.8326 13.5458 35.9651 13.0443H37.8701C37.8204 13.4686 37.6492 13.9425 37.3676 14.4605C37.1192 14.9345 36.7989 15.3643 36.4179 15.739C35.8326 16.3121 35.1038 16.7034 34.2424 16.9018C33.7233 17.023 33.1988 17.0781 32.6687 17.0726C31.2386 17.0726 30.0238 16.5491 29.0299 15.5021C28.036 14.455 27.5391 12.9892 27.5391 11.1101C27.5391 9.25848 28.0415 7.74856 29.041 6.59132C30.0404 5.43409 31.3545 4.85547 32.9724 4.85547C33.7841 4.872 34.6013 5.07038 35.3357 5.44511ZM36.0314 9.98038C35.9541 9.13725 35.7719 8.46495 35.4847 7.96348C34.9547 7.02667 34.0767 6.56377 32.8399 6.56377C31.9564 6.56377 31.211 6.88339 30.6146 7.52814C30.0128 8.17288 29.698 8.98846 29.6594 9.98038H36.0314Z" fill="#5D5D5D"/>
<path d="M40.3164 5.12479H42.1662V6.76145C42.7128 6.08364 43.2926 5.5987 43.9055 5.30664C44.546 5.00906 45.2417 4.85476 45.9485 4.86579C47.5884 4.86579 48.6983 5.43889 49.2781 6.5796C49.5928 7.2023 49.7529 8.10054 49.7529 9.26329V16.6696H47.7762V9.39554C47.7762 8.69018 47.6713 8.12258 47.4615 7.69275C47.1136 6.97637 46.4896 6.61266 45.5841 6.61266C45.1203 6.61266 44.7448 6.65675 44.4521 6.75043C43.9165 6.91024 43.4527 7.22435 43.0496 7.69826C42.7239 8.0785 42.514 8.47526 42.4202 8.87754C42.3208 9.28533 42.2766 9.86395 42.2766 10.6189V16.6696H40.3274L40.3164 5.12479Z" fill="#5D5D5D"/>
<path d="M53.5961 13.05C53.6569 13.6948 53.8225 14.1907 54.0931 14.5379C54.59 15.1606 55.4624 15.4747 56.6938 15.4747C57.4282 15.4747 58.0742 15.3204 58.6319 15.0063C59.1896 14.6922 59.4712 14.2073 59.4712 13.557C59.4712 13.061 59.2503 12.6863 58.8031 12.4273C58.5159 12.2675 57.9527 12.0857 57.1134 11.8763L55.5453 11.4905C54.5458 11.248 53.8059 10.9725 53.3256 10.6694C52.4807 10.1459 52.0556 9.4185 52.0556 8.49271C52.0556 7.4016 52.4531 6.51439 53.2538 5.84209C54.0544 5.16428 55.1256 4.82812 56.4784 4.82812C58.2454 4.82812 59.5209 5.34062 60.2994 6.36009C60.7853 7.00483 61.0228 7.70469 61.0117 8.45413H59.173C59.1344 8.01879 58.9687 7.60549 58.6981 7.26383C58.2398 6.75685 57.4502 6.50336 56.3183 6.50336C55.5674 6.50336 54.9931 6.64113 54.6066 6.92217C54.2201 7.20322 54.0268 7.56692 54.0268 8.0243C54.0268 8.52577 54.2808 8.92805 54.7888 9.22563C55.0814 9.40748 55.5177 9.56178 56.0864 9.69954L57.395 10.0136C58.8196 10.3498 59.7749 10.6804 60.2553 10.9945C61.0117 11.4905 61.3872 12.273 61.3872 13.3366C61.3872 14.3671 60.9896 15.2543 60.2 15.9982C59.4104 16.7422 58.2012 17.1169 56.5833 17.1169C54.8385 17.1169 53.6072 16.7256 52.8838 15.9486C52.1605 15.1716 51.7684 14.2017 51.7188 13.0555L53.5961 13.05Z" fill="#5D5D5D"/>
<path d="M70.4763 5.44546C71.2438 5.8312 71.8236 6.32716 72.2267 6.93884C72.6132 7.52297 72.8727 8.20078 72.9997 8.97779C73.1156 9.51232 73.1709 10.3555 73.1709 11.5237H64.7558C64.7945 12.6975 65.0706 13.6398 65.5841 14.3507C66.0976 15.0615 66.8982 15.4142 67.975 15.4142C68.9854 15.4142 69.7861 15.0781 70.3879 14.4058C70.7248 14.0145 70.9677 13.5516 71.1002 13.0502H73.0107C72.961 13.4745 72.7899 13.9484 72.5083 14.4664C72.2598 14.9403 71.9395 15.3701 71.5585 15.7449C70.9732 16.318 70.2444 16.7092 69.383 16.9076C68.864 17.0289 68.3394 17.084 67.8093 17.0784C66.3792 17.0784 65.1644 16.5549 64.1705 15.5079C63.1766 14.4609 62.6797 12.9951 62.6797 11.1159C62.6797 9.26434 63.1822 7.75442 64.1816 6.59718C65.181 5.43995 66.4952 4.86133 68.113 4.86133C68.9302 4.87235 69.7419 5.07073 70.4763 5.44546ZM71.172 9.98073C71.0947 9.1376 70.9125 8.4653 70.6254 7.96383C70.0953 7.02702 69.2118 6.56412 67.9805 6.56412C67.097 6.56412 66.3516 6.88374 65.7497 7.52848C65.1479 8.17323 64.8331 8.98881 64.7945 9.98073H71.172Z" fill="#5D5D5D"/>
<path d="M95.5195 4.80078H82.6484V17.1667H95.5195V4.80078Z" fill="#E10800"/>
<path d="M93.1539 9.95238H90.3544V7.22461H87.9304V9.95238H85.1641V12.3771H87.9304V15.1985H90.3544V12.3771H93.1539V9.95238Z" fill="white"/>
</svg>
